<svg width="734" height="640" viewBox="0 0 734 640" fill="none" xmlns="http://www.w3.org/2000/svg" xmlns:xlink="http://www.w3.org/1999/xlink">
<rect width="734" height="640" fill="url(#pattern0)"/>
<defs>
<pattern id="pattern0" patternContentUnits="objectBoundingBox" width="1" height="1">
<use xlink:href="#image0" transform="translate(-0.00408719) scale(0.0013624 0.0015625)"/>
</pattern>
</defs>
<path d="M222 528.488L442.8 536.395L512 522.855V544.301L443.5 563.77L222 552.899V528.488Z" fill="#3595F6" fill-opacity="0.75"/>
<path d="M223 527.5V502.793L443.3 506.054L513 502.793V522.559L443.7 535.406L223 527.5Z" fill="#3595F6" fill-opacity="0.75"/>
<path d="M223 501.805V477.098H444H513V499.828L445 506.746L223 501.805Z" fill="#3595F6" fill-opacity="0.75"/>
<path d="M223 478.086V453.379L444.3 449.722L512 456.344V478.086H444" fill="#3595F6" fill-opacity="0.75"/>
<path d="M223 452.391V426.695L444.5 423.434L513 434.305V455.355L444 448.734L223 452.391Z" fill="#3595F6" fill-opacity="0.75"/>
<path d="M222 425.707V402.285L443 390.129L514 412.859V433.91L443 421.754L222 425.707Z" fill="#3595F6" fill-opacity="0.75"/>
<path d="M222 403.965V379.258L444.2 363.149L514 391.414V411.871L443.7 390.425L222 403.965Z" fill="#3595F6" fill-opacity="0.75"/>
<path d="M222 379.258V354.551L444.5 334.489L514 370.66V391.117L442 362.754L222 379.258Z" fill="#3595F6" fill-opacity="0.75"/>
<path d="M222 353.562V329.844L445 305.433L514 348.918V370.363L444.7 332.809L222 353.562Z" fill="#3595F6" fill-opacity="0.75"/>
<path d="M222 328.855V305.137L444.5 276.773L514 327.175V347.633L443.7 305.829L222 328.855Z" fill="#3595F6" fill-opacity="0.75"/>
<path d="M221 305.137V281.418L443.3 248.805L514 307.41V326.879L444 276.773L221 305.137Z" fill="#3595F6" fill-opacity="0.75"/>
<path d="M222 280.43V256.711L443.2 222.121L513 285.371V306.125L444.3 248.508L222 280.43Z" fill="#3595F6" fill-opacity="0.75"/>
<path d="M222 256.711V232.004L444.3 194.449L513 263.925V284.383L444 221.133L222 256.711Z" fill="#3595F6" fill-opacity="0.75"/>
<path d="M222 231.016V206.309L442.8 163.121L513 241.195V263.629L444 191.188L222 231.016Z" fill="#3595F6" fill-opacity="0.75"/>
<path d="M223 207.297V182.59L443 135.152L513 219.156V241.887L442.3 163.516L223 207.297Z" fill="#3595F6" fill-opacity="0.75"/>
<path d="M222 182.59V157.883L441.8 106.492L513 197.711V220.145L443.3 134.856L222 182.59Z" fill="#3595F6" fill-opacity="0.75"/>
<path d="M222 157.883V132.187L444 76.1519L513 176.66V197.414L443.7 106.789L222 157.883Z" fill="#3595F6" fill-opacity="0.75"/>

</svg>
